<svg version="1.1" id="Layer_1" xmlns="http://www.w3.org/2000/svg" xmlns:xlink="http://www.w3.org/1999/xlink" x="0px" y="0px"
	 width="100%" viewBox="0 0 373 322" enable-background="new 0 0 373 322" xml:space="preserve">
<path fill="#EDF2F6" opacity="1.000000" stroke="none" 
	d="
M374.000000,116.000000 
	C374.000000,185.333328 374.000000,254.166672 374.000000,323.000000 
	C249.666672,323.000000 125.333359,323.000000 1.000026,323.000000 
	C1.000017,215.666687 1.000017,108.333366 1.000009,1.000040 
	C125.333313,1.000027 249.666626,1.000027 373.999969,1.000013 
	C374.000000,39.166668 374.000000,77.333336 374.000000,116.000000 
M136.260788,23.156288 
	C121.660744,28.365822 107.635864,34.649647 95.063690,45.015079 
	C82.857666,54.552410 72.046371,65.385170 63.243134,79.008263 
	C61.679428,81.559807 60.008469,84.052452 58.569614,86.672562 
	C49.926266,102.411911 43.787994,118.982925 41.779305,137.775986 
	C40.128246,154.052887 40.236355,170.258759 44.092003,186.259521 
	C51.174236,215.650497 65.421417,240.719376 89.230522,260.738129 
	C105.618073,274.635254 124.060135,284.575714 145.768387,289.975006 
	C159.618271,293.784119 173.720383,294.796478 188.874252,293.916199 
	C204.228683,292.747559 219.104858,289.626160 233.868713,283.029114 
	C238.067139,280.791046 242.190536,278.396301 246.477570,276.343231 
	C261.421173,269.186707 273.598206,258.623230 284.803497,245.797913 
	C295.541046,233.414154 303.916290,219.643616 309.768616,203.596634 
	C319.627411,176.250839 321.363556,148.402206 313.882782,120.302696 
	C304.739136,85.956963 285.680206,58.682693 255.329132,39.422707 
	C245.995972,33.500130 236.745377,27.794172 225.577621,24.171101 
	C210.790588,19.204214 195.735672,15.944793 179.082581,16.818062 
	C164.661484,16.303230 150.643494,18.463964 136.260788,23.156288 
z"/>
<path fill="#0E1F73" opacity="1.000000" stroke="none" 
	d="
M309.279205,204.104721 
	C303.916290,219.643616 295.541046,233.414154 284.148438,245.873596 
	C277.737549,240.075409 277.126892,240.275406 269.679626,246.735397 
	C263.836945,251.803513 257.927185,256.915527 251.470840,261.123779 
	C243.630157,266.234406 235.184128,270.416290 226.609192,275.010010 
	C217.779495,277.192535 209.381866,279.547394 200.886459,281.470245 
	C195.667313,282.651520 190.298584,283.171875 184.539978,283.990967 
	C169.722870,281.993652 155.362808,279.994385 140.769928,277.731628 
	C138.025818,276.639771 135.514526,275.811432 133.003204,274.595947 
	C132.517242,270.359253 135.584198,269.522919 138.110229,268.527710 
	C147.308060,264.903961 156.590347,261.494568 165.787094,257.868195 
	C167.016190,257.383545 167.937164,256.117523 169.259048,255.151764 
	C169.692459,255.064987 169.867645,255.039764 170.448181,255.011108 
	C172.901382,254.505569 174.979218,254.101059 176.991394,253.482803 
	C182.759155,251.710602 188.500290,249.851822 194.397400,248.453979 
	C194.639130,250.822220 194.735382,252.763550 194.852722,255.130676 
	C214.168106,252.383163 231.011108,245.133652 246.059525,233.057205 
	C243.414352,230.174118 241.081299,227.631226 239.120544,225.033615 
	C241.239029,224.056747 242.913071,222.947418 244.742874,222.242172 
	C258.732239,216.850403 272.728729,211.475220 286.772827,206.228210 
	C293.023773,203.892776 298.391663,200.850586 300.598175,193.928818 
	C301.787720,190.197327 303.515228,186.637360 305.270142,183.259644 
	C305.438324,184.619965 305.249420,185.720596 305.248871,186.821320 
	C305.245880,192.891602 303.117310,199.470108 309.279205,204.104721 
z"/>
<path fill="#1C308C" opacity="1.000000" stroke="none" 
	d="
M42.078140,136.999298 
	C43.787994,118.982925 49.926266,102.411911 58.569614,86.672562 
	C60.008469,84.052452 61.679428,81.559807 63.583233,79.243530 
	C63.974373,80.133125 63.843395,80.875610 64.109787,81.425636 
	C64.991615,83.246368 66.016754,84.997681 66.986908,86.775635 
	C68.571510,85.770142 70.437286,85.030540 71.687325,83.708664 
	C75.258675,79.932083 78.579811,75.918900 81.992645,72.376755 
	C81.447449,74.609306 80.908958,76.463882 80.256149,78.712204 
	C81.543327,78.712204 82.583641,78.983215 83.402710,78.671967 
	C98.082703,73.093536 112.743652,67.464653 127.393089,61.806225 
	C150.673248,52.814125 173.956223,43.828751 197.195419,34.731804 
	C199.794525,33.714382 203.326904,33.204887 203.388702,29.062569 
	C206.003052,29.625570 208.258850,30.030691 210.439438,30.686052 
	C217.303085,32.748886 224.138458,34.905701 231.188354,37.286522 
	C233.266418,38.687252 235.140915,39.827591 237.008514,41.359875 
	C236.013870,43.002930 235.284439,44.842312 233.995773,45.408188 
	C226.508026,48.696159 218.859451,51.616264 211.341965,54.839649 
	C210.040222,55.397816 209.105347,56.811531 207.605316,57.814178 
	C203.149765,57.102894 199.089920,56.407505 195.011780,55.708988 
	C194.689911,58.389668 194.474686,60.182117 193.903397,61.983932 
	C191.669403,62.510345 189.750427,62.912407 187.921127,63.565655 
	C182.059036,65.659035 176.230164,67.845390 170.296860,69.538452 
	C170.205261,64.687851 170.205261,60.294659 170.205261,55.938770 
	C158.096283,55.907398 139.018280,62.227009 126.954887,70.935181 
	C119.663689,76.198471 112.401207,81.908379 106.535172,88.644859 
	C97.467682,99.057869 90.947891,111.274002 85.993286,124.034782 
	C84.504082,123.660912 83.096809,123.187782 82.025970,123.596375 
	C75.043472,126.260712 68.196526,129.287811 61.178356,131.848450 
	C56.563515,133.532242 54.137409,136.949799 53.202148,141.292114 
	C52.091713,146.447784 51.700565,151.758377 50.625267,156.914154 
	C49.829189,155.672028 49.448753,154.499527 48.974594,153.366211 
	C46.689632,147.904770 44.379402,142.453918 42.078140,136.999298 
z"/>
<path fill="#0D1E71" opacity="1.000000" stroke="none" 
	d="
M237.015411,40.967926 
	C235.140915,39.827591 233.266418,38.687252 231.154266,36.925575 
	C229.312057,32.413944 227.707489,28.523659 226.102921,24.633369 
	C236.745377,27.794172 245.995972,33.500130 255.329132,39.422707 
	C285.680206,58.682693 304.739136,85.956963 313.882782,120.302696 
	C321.363556,148.402206 319.627411,176.250839 309.523926,203.850677 
	C303.117310,199.470108 305.245880,192.891602 305.248871,186.821320 
	C305.249420,185.720596 305.438324,184.619965 305.281097,182.848221 
	C306.013367,174.784164 307.004852,167.391190 307.997101,159.534882 
	C307.664856,154.381042 307.331818,149.690521 306.999146,144.552444 
	C306.332031,139.403503 305.664581,134.702103 304.987396,129.597458 
	C303.653839,124.793785 302.329956,120.393379 300.996185,115.604004 
	C298.658325,109.476570 296.330383,103.738113 293.959320,97.647491 
	C292.818542,95.275169 291.768250,93.227539 290.615265,91.239479 
	C284.980682,81.524086 278.780884,72.246948 269.859436,64.693878 
	C260.332153,54.464073 249.785522,46.164810 237.015411,40.967926 
z"/>
<path fill="#203490" opacity="1.000000" stroke="none" 
	d="
M41.928722,137.387634 
	C44.379402,142.453918 46.689632,147.904770 48.974594,153.366211 
	C49.448753,154.499527 49.829189,155.672028 50.625694,157.342407 
	C50.998707,159.572220 50.998840,161.286118 50.736748,163.244843 
	C50.981411,164.994171 51.488304,166.498672 51.995880,168.438232 
	C53.328068,175.251572 54.659573,181.629852 55.995148,188.410721 
	C56.975277,192.284988 57.426212,196.022552 59.024418,199.179260 
	C64.117897,209.239685 69.637939,219.084152 75.133575,229.320099 
	C76.850853,232.082687 78.427757,234.537216 80.008995,237.360077 
	C80.801918,239.114639 81.616257,240.486923 82.374588,241.889496 
	C85.483429,247.639526 89.448967,253.083908 88.954620,260.134308 
	C65.421417,240.719376 51.174236,215.650497 44.092003,186.259521 
	C40.236355,170.258759 40.128246,154.052887 41.928722,137.387634 
z"/>
<path fill="#1C308C" opacity="1.000000" stroke="none" 
	d="
M89.092575,260.436218 
	C89.448967,253.083908 85.483429,247.639526 82.374588,241.889496 
	C81.616257,240.486923 80.801918,239.114639 80.307190,237.511383 
	C88.067886,244.195236 95.534706,251.096115 103.203201,258.262451 
	C113.270988,264.012970 123.137108,269.498047 133.003235,274.983124 
	C135.514526,275.811432 138.025818,276.639771 140.775528,278.107422 
	C142.343857,282.397400 143.673782,286.048065 145.003693,289.698730 
	C124.060135,284.575714 105.618073,274.635254 89.092575,260.436218 
z"/>
<path fill="#13257B" opacity="1.000000" stroke="none" 
	d="
M227.000000,275.000000 
	C235.184128,270.416290 243.630157,266.234406 251.470840,261.123779 
	C257.927185,256.915527 263.836945,251.803513 269.679626,246.735397 
	C277.126892,240.275406 277.737549,240.075409 283.851105,246.017578 
	C273.598206,258.623230 261.421173,269.186707 246.477570,276.343231 
	C242.190536,278.396301 238.067139,280.791046 233.217896,282.844604 
	C230.711395,280.106720 228.855698,277.553375 227.000000,275.000000 
z"/>
<path fill="#192D86" opacity="1.000000" stroke="none" 
	d="
M81.999359,71.998779 
	C78.579811,75.918900 75.258675,79.932083 71.687325,83.708664 
	C70.437286,85.030540 68.571510,85.770142 66.986908,86.775635 
	C66.016754,84.997681 64.991615,83.246368 64.109787,81.425636 
	C63.843395,80.875610 63.974373,80.133125 63.880424,79.056931 
	C72.046371,65.385170 82.857666,54.552410 95.697701,45.169765 
	C97.056587,49.692642 99.297264,52.012917 103.846130,51.300266 
	C96.459198,58.398220 89.229279,65.198502 81.999359,71.998779 
z"/>
<path fill="#102276" opacity="1.000000" stroke="none" 
	d="
M225.840271,24.402237 
	C227.707489,28.523659 229.312057,32.413944 230.950714,36.665184 
	C224.138458,34.905701 217.303085,32.748886 210.439438,30.686052 
	C208.258850,30.030691 206.003052,29.625570 202.981293,29.044262 
	C196.455399,28.316027 190.729874,27.649473 184.961792,26.634756 
	C183.279663,23.198051 181.640121,20.109509 180.000595,17.020966 
	C195.735672,15.944793 210.790588,19.204214 225.840271,24.402237 
z"/>
<path fill="#172A81" opacity="1.000000" stroke="none" 
	d="
M226.609192,275.010010 
	C228.855698,277.553375 230.711395,280.106720 232.853958,282.867188 
	C219.104858,289.626160 204.228683,292.747559 188.438873,293.463074 
	C187.001343,290.002991 185.999191,286.996002 184.997040,283.989014 
	C190.298584,283.171875 195.667313,282.651520 200.886459,281.470245 
	C209.381866,279.547394 217.779495,277.192535 226.609192,275.010010 
z"/>
<path fill="#172A81" opacity="1.000000" stroke="none" 
	d="
M104.003143,51.002594 
	C99.297264,52.012917 97.056587,49.692642 96.023590,45.094307 
	C107.635864,34.649647 121.660744,28.365822 136.641510,23.522469 
	C138.347748,26.599005 139.673264,29.309359 140.778870,32.294338 
	C128.373672,38.713509 116.188408,44.858051 104.003143,51.002594 
z"/>
<path fill="#192D86" opacity="1.000000" stroke="none" 
	d="
M184.539978,283.990967 
	C185.999191,286.996002 187.001343,290.002991 188.004303,293.397034 
	C173.720383,294.796478 159.618271,293.784119 145.386047,289.836853 
	C143.673782,286.048065 142.343857,282.397400 141.008347,278.370911 
	C155.362808,279.994385 169.722870,281.993652 184.539978,283.990967 
z"/>
<path fill="#12247B" opacity="1.000000" stroke="none" 
	d="
M140.998795,32.019714 
	C139.673264,29.309359 138.347748,26.599005 137.014633,23.522919 
	C150.643494,18.463964 164.661484,16.303230 179.541595,16.919514 
	C181.640121,20.109509 183.279663,23.198051 184.492950,26.641785 
	C169.400940,26.015041 155.199982,29.018385 140.998795,32.019714 
z"/>
<path fill="#06ECC4" opacity="1.000000" stroke="none" 
	d="
M86.230820,124.343315 
	C90.947891,111.274002 97.467682,99.057869 106.535172,88.644859 
	C112.401207,81.908379 119.663689,76.198471 126.954887,70.935181 
	C139.018280,62.227009 158.096283,55.907398 170.205261,55.938770 
	C170.205261,60.294659 170.205261,64.687851 170.205673,69.998779 
	C170.266693,76.276421 170.327301,81.636314 170.297028,87.457458 
	C170.267197,96.950317 170.328278,105.981926 170.300140,115.472794 
	C170.270050,126.287285 170.329163,136.642517 170.298416,147.458832 
	C170.269196,154.945282 170.329834,161.970627 170.299667,169.454788 
	C170.269104,174.607468 170.329361,179.301361 170.298904,184.454788 
	C170.268753,189.941330 170.329315,194.968323 170.299164,200.456436 
	C170.268646,208.949570 170.328842,216.981567 170.299988,225.472916 
	C170.154922,235.626343 170.098877,245.320435 170.042847,255.014526 
	C169.867645,255.039764 169.692459,255.064987 168.864380,255.045227 
	C154.671051,252.969543 142.078766,248.266586 129.983124,241.290436 
	C118.066200,234.243286 108.999527,224.551498 100.349762,213.986908 
	C92.095581,201.502167 86.107277,188.398499 83.165665,173.543777 
	C82.909546,170.968887 82.554840,168.843307 82.387741,166.703064 
	C81.268585,152.368378 81.710701,138.169098 86.230820,124.343315 
z"/>
<path fill="#102278" opacity="1.000000" stroke="none" 
	d="
M307.996338,159.998199 
	C307.004852,167.391190 306.013367,174.784164 305.010956,182.588577 
	C303.515228,186.637360 301.787720,190.197327 300.598175,193.928818 
	C298.391663,200.850586 293.023773,203.892776 286.772827,206.228210 
	C272.728729,211.475220 258.732239,216.850403 244.742874,222.242172 
	C242.913071,222.947418 241.239029,224.056747 238.819672,224.906769 
	C231.067184,217.624435 223.987869,210.414246 217.068420,202.880615 
	C219.364822,201.358932 221.393890,199.884537 223.654419,199.004959 
	C247.546127,189.708496 271.499817,180.570862 295.371826,171.224487 
	C300.096924,169.374496 305.845703,168.257126 306.172241,161.336899 
	C306.194611,160.863037 307.361633,160.443176 307.996338,159.998199 
z"/>
<path fill="#FCD613" opacity="1.000000" stroke="none" 
	d="
M216.908569,203.204041 
	C223.987869,210.414246 231.067184,217.624435 238.447357,224.961456 
	C241.081299,227.631226 243.414352,230.174118 246.059525,233.057205 
	C231.011108,245.133652 214.168106,252.383163 194.852722,255.130676 
	C194.735382,252.763550 194.639130,250.822220 194.543594,248.004425 
	C194.445908,237.094910 194.347519,227.061874 194.396439,216.579468 
	C194.445663,208.079239 194.347610,200.028366 194.394775,191.556366 
	C194.539993,188.274567 194.539993,185.413895 194.539993,181.596054 
	C197.600739,184.350082 199.749329,186.283356 202.027832,188.519608 
	C207.074677,193.616394 211.991623,198.410217 216.908569,203.204041 
z"/>
<path fill="#0F2177" opacity="1.000000" stroke="none" 
	d="
M130.212509,241.517487 
	C142.078766,248.266586 154.671051,252.969543 168.606140,255.106812 
	C167.937164,256.117523 167.016190,257.383545 165.787094,257.868195 
	C156.590347,261.494568 147.308060,264.903961 138.110229,268.527710 
	C135.584198,269.522919 132.517242,270.359253 133.003204,274.595947 
	C123.137108,269.498047 113.270988,264.012970 103.202744,257.854980 
	C102.497910,253.526489 104.453270,252.137497 107.701790,250.924622 
	C115.314857,248.082169 122.722000,244.688187 130.212509,241.517487 
z"/>
<path fill="#0F2177" opacity="1.000000" stroke="none" 
	d="
M194.249146,217.028824 
	C194.347519,227.061874 194.445908,237.094910 194.398102,247.577515 
	C188.500290,249.851822 182.759155,251.710602 176.991394,253.482803 
	C174.979218,254.101059 172.901382,254.505569 170.448181,255.011108 
	C170.098877,245.320435 170.154922,235.626343 170.666565,225.468246 
	C172.970947,224.387344 174.826019,223.788544 176.667389,223.150223 
	C182.530716,221.117661 188.388931,219.070404 194.249146,217.028824 
z"/>
<path fill="#1C348F" opacity="1.000000" stroke="none" 
	d="
M140.778870,32.294338 
	C155.199982,29.018385 169.400940,26.015041 184.535522,26.989948 
	C190.729874,27.649473 196.455399,28.316027 202.588318,29.000889 
	C203.326904,33.204887 199.794525,33.714382 197.195419,34.731804 
	C173.956223,43.828751 150.673248,52.814125 127.393089,61.806225 
	C112.743652,67.464653 98.082703,73.093536 83.402710,78.671967 
	C82.583641,78.983215 81.543327,78.712204 80.256149,78.712204 
	C80.908958,76.463882 81.447449,74.609306 81.992645,72.376755 
	C89.229279,65.198502 96.459198,58.398220 103.846130,51.300270 
	C116.188408,44.858051 128.373672,38.713509 140.778870,32.294338 
z"/>
<path fill="#FC4B41" opacity="1.000000" stroke="none" 
	d="
M194.259460,61.974571 
	C194.474686,60.182117 194.689911,58.389668 195.011780,55.708988 
	C199.089920,56.407505 203.149765,57.102894 207.989822,57.889584 
	C220.925354,61.360630 232.060043,66.765266 242.232712,74.564438 
	C241.270874,75.827316 240.483490,76.861130 239.405884,78.036774 
	C224.656799,92.727722 210.197937,107.276840 194.987946,122.581795 
	C194.701309,116.850853 194.480713,112.440079 194.408478,107.579758 
	C194.457809,98.078857 194.358765,89.027504 194.407272,79.534058 
	C194.456360,73.386177 194.357910,67.680374 194.259460,61.974571 
z"/>
<path fill="#182C86" opacity="1.000000" stroke="none" 
	d="
M85.993286,124.034782 
	C81.710701,138.169098 81.268585,152.368378 82.387741,166.703064 
	C82.554840,168.843307 82.909546,170.968887 82.781143,173.586212 
	C76.248001,176.381561 70.183907,178.918732 63.947613,180.919052 
	C60.076893,182.160599 56.968319,183.754120 55.991074,188.008148 
	C54.659573,181.629852 53.328068,175.251572 51.997585,168.051727 
	C51.665394,165.820129 51.332184,164.410065 50.998974,163.000000 
	C50.998840,161.286118 50.998707,159.572220 50.998146,157.430084 
	C51.700565,151.758377 52.091713,146.447784 53.202148,141.292114 
	C54.137409,136.949799 56.563515,133.532242 61.178356,131.848450 
	C68.196526,129.287811 75.043472,126.260712 82.025970,123.596375 
	C83.096809,123.187782 84.504082,123.660912 85.993286,124.034782 
z"/>
<path fill="#1B2F8A" opacity="1.000000" stroke="none" 
	d="
M239.696106,77.894936 
	C240.483490,76.861130 241.270874,75.827316 242.232712,74.564438 
	C232.060043,66.765266 220.925354,61.360630 208.385529,57.905479 
	C209.105347,56.811531 210.040222,55.397816 211.341965,54.839649 
	C218.859451,51.616264 226.508026,48.696159 233.995773,45.408188 
	C235.284439,44.842312 236.013870,43.002930 237.008514,41.359871 
	C249.785522,46.164810 260.332153,54.464073 269.695190,64.998825 
	C259.687531,69.697990 249.691818,73.796463 239.696106,77.894936 
z"/>
<path fill="#1B2F8A" opacity="1.000000" stroke="none" 
	d="
M193.903381,61.983932 
	C194.357910,67.680374 194.456360,73.386177 194.048233,79.543228 
	C190.698898,80.827354 187.849152,81.637276 185.014908,82.498222 
	C180.134171,83.980827 175.263077,85.495186 170.387924,86.996216 
	C170.327301,81.636314 170.266693,76.276421 170.297272,70.456192 
	C176.230164,67.845390 182.059036,65.659035 187.921127,63.565655 
	C189.750427,62.912407 191.669403,62.510345 193.903381,61.983932 
z"/>
<path fill="#172A84" opacity="1.000000" stroke="none" 
	d="
M239.405884,78.036758 
	C249.691818,73.796463 259.687531,69.697990 269.847504,65.294586 
	C278.780884,72.246948 284.980682,81.524086 290.615265,91.239479 
	C291.768250,93.227539 292.818542,95.275169 293.618256,97.706139 
	C291.465515,99.448128 289.782654,101.201080 287.726807,102.039314 
	C277.465302,106.223289 267.119324,110.201912 256.777893,114.187561 
	C239.313461,120.918488 221.843307,127.635117 204.349945,134.290421 
	C193.053009,138.588287 181.710419,142.766129 170.388275,146.997757 
	C170.329163,136.642517 170.270050,126.287285 170.680145,115.469261 
	C173.165146,114.470345 175.200912,113.999107 177.192932,113.385765 
	C182.891510,111.631172 188.572327,109.818901 194.260117,108.029312 
	C194.480713,112.440079 194.701309,116.850853 194.987946,122.581795 
	C210.197937,107.276840 224.656799,92.727722 239.405884,78.036758 
z"/>
<path fill="#152880" opacity="1.000000" stroke="none" 
	d="
M170.298416,147.458832 
	C181.710419,142.766129 193.053009,138.588287 204.349945,134.290421 
	C221.843307,127.635117 239.313461,120.918488 256.777893,114.187561 
	C267.119324,110.201912 277.465302,106.223289 287.726807,102.039314 
	C289.782654,101.201080 291.465515,99.448128 293.661407,98.058289 
	C296.330383,103.738113 298.658325,109.476570 300.850037,115.931854 
	C299.149811,118.142235 297.831512,120.165649 295.974335,121.026894 
	C291.028381,123.320503 285.851105,125.115433 280.764587,127.105576 
	C262.857971,134.111710 244.942886,141.096237 227.046753,148.128998 
	C214.895370,152.904221 202.828094,157.899918 190.610458,162.497406 
	C183.992447,164.987747 177.138184,166.850250 170.390472,168.995987 
	C170.329834,161.970627 170.269196,154.945282 170.298416,147.458832 
z"/>
<path fill="#12247B" opacity="1.000000" stroke="none" 
	d="
M217.068420,202.880615 
	C211.991623,198.410217 207.074677,193.616394 202.189056,188.194916 
	C210.804230,183.758209 219.279587,179.678070 227.992279,176.190918 
	C254.278259,165.670242 280.656494,155.380051 306.998779,145.000000 
	C307.331818,149.690521 307.664856,154.381042 307.997101,159.534882 
	C307.361633,160.443176 306.194611,160.863037 306.172241,161.336899 
	C305.845703,168.257126 300.096924,169.374496 295.371826,171.224487 
	C271.499817,180.570862 247.546127,189.708496 223.654419,199.004959 
	C221.393890,199.884537 219.364822,201.358932 217.068420,202.880615 
z"/>
<path fill="#13267E" opacity="1.000000" stroke="none" 
	d="
M170.299683,169.454788 
	C177.138184,166.850250 183.992447,164.987747 190.610458,162.497406 
	C202.828094,157.899918 214.895370,152.904221 227.046753,148.128998 
	C244.942886,141.096237 262.857971,134.111710 280.764587,127.105576 
	C285.851105,125.115433 291.028381,123.320503 295.974335,121.026894 
	C297.831512,120.165649 299.149811,118.142235 300.859924,116.320816 
	C302.329956,120.393379 303.653839,124.793785 304.685181,129.757904 
	C301.831238,132.258453 299.536407,134.849304 296.662903,136.020630 
	C283.152466,141.527878 269.477814,146.631638 255.871765,151.905182 
	C233.922821,160.412323 212.008591,169.009903 190.020691,177.414948 
	C183.579712,179.877060 176.938858,181.816330 170.389618,183.995239 
	C170.329361,179.301361 170.269104,174.607468 170.299683,169.454788 
z"/>
<path fill="#13257D" opacity="1.000000" stroke="none" 
	d="
M170.298904,184.454788 
	C176.938858,181.816330 183.579712,179.877060 190.020691,177.414948 
	C212.008591,169.009903 233.922821,160.412323 255.871765,151.905182 
	C269.477814,146.631638 283.152466,141.527878 296.662903,136.020630 
	C299.536407,134.849304 301.831238,132.258453 304.694885,130.161163 
	C305.664581,134.702103 306.332031,139.403503 306.999146,144.552444 
	C280.656494,155.380051 254.278259,165.670242 227.992279,176.190918 
	C219.279587,179.678070 210.804230,183.758209 202.059143,187.891937 
	C199.749329,186.283356 197.600739,184.350082 194.539993,181.596054 
	C194.539993,185.413895 194.539993,188.274567 194.038040,191.567627 
	C192.885788,192.087967 192.194946,192.063507 191.591370,192.281097 
	C184.516602,194.831467 177.454971,197.418182 170.389877,199.995300 
	C170.329315,194.968323 170.268753,189.941330 170.298904,184.454788 
z"/>
<path fill="#142880" opacity="1.000000" stroke="none" 
	d="
M55.995144,188.410721 
	C56.968319,183.754120 60.076893,182.160599 63.947613,180.919052 
	C70.183907,178.918732 76.248001,176.381561 82.769348,174.028748 
	C86.107277,188.398499 92.095581,201.502167 100.115562,214.335541 
	C94.543190,217.347595 89.105751,219.663223 83.696671,222.043289 
	C80.188141,223.587112 75.686600,223.935532 74.993202,229.012039 
	C69.637939,219.084152 64.117897,209.239685 59.024418,199.179260 
	C57.426212,196.022552 56.975277,192.284988 55.995144,188.410721 
z"/>
<path fill="#11247A" opacity="1.000000" stroke="none" 
	d="
M75.133575,229.320099 
	C75.686600,223.935532 80.188141,223.587112 83.696671,222.043289 
	C89.105751,219.663223 94.543190,217.347595 100.202789,214.655975 
	C108.999527,224.551498 118.066200,234.243286 129.983124,241.290436 
	C122.722000,244.688187 115.314857,248.082169 107.701790,250.924622 
	C104.453270,252.137497 102.497910,253.526489 103.001068,257.589539 
	C95.534706,251.096115 88.067886,244.195236 80.302872,237.143036 
	C78.427757,234.537216 76.850853,232.082687 75.133575,229.320099 
z"/>
<path fill="#1C308C" opacity="1.000000" stroke="none" 
	d="
M50.736748,163.244843 
	C51.332184,164.410065 51.665394,165.820129 51.996902,167.616684 
	C51.488304,166.498672 50.981411,164.994171 50.736748,163.244843 
z"/>
<path fill="#192D88" opacity="1.000000" stroke="none" 
	d="
M194.408478,107.579765 
	C188.572327,109.818901 182.891510,111.631172 177.192932,113.385765 
	C175.200912,113.999107 173.165146,114.470345 170.769348,115.010010 
	C170.328278,105.981926 170.267197,96.950317 170.297028,87.457458 
	C175.263077,85.495186 180.134171,83.980827 185.014908,82.498222 
	C187.849152,81.637276 190.698898,80.827354 193.900696,79.985306 
	C194.358765,89.027504 194.457809,98.078857 194.408478,107.579765 
z"/>
<path fill="#12247B" opacity="1.000000" stroke="none" 
	d="
M170.299164,200.456421 
	C177.454971,197.418182 184.516602,194.831467 191.591370,192.281097 
	C192.194946,192.063507 192.885788,192.087967 193.892822,191.988739 
	C194.347610,200.028366 194.445663,208.079239 194.396423,216.579468 
	C188.388931,219.070404 182.530716,221.117661 176.667389,223.150223 
	C174.826019,223.788544 172.970947,224.387344 170.755600,225.008911 
	C170.328842,216.981567 170.268646,208.949570 170.299164,200.456421 
z"/>
</svg>